# xmcd CD database file
#
# Track frame offsets:
#	150
#	14064
#	30420
#	53539
#	74951
#	93766
#	107078
#	128313
#	150374
#	167181
#	183909
#
# Disc length: 2608 seconds
#
# Revision: 0
# Processed by: cddbd v1.5.2PL0 Copyright (c) Steve Scherf et al.
# Submitted via: CDex 1.51
#
DISCID=820a2e0b
DTITLE=Lietzman 4 Jazz - Our Favourite Things
DYEAR=2010
DGENRE=Jazz
TTITLE0=It Don't Mean A Thing
TTITLE1=Orfeo Negro
TTITLE2=Don't Get Around Much Anymore
TTITLE3=Fly Me to the Moon
TTITLE4=My Foolish Heart
TTITLE5=My Favourite Things
TTITLE6=Now's the Time
TTITLE7=Georgia [on my Mind]
TTITLE8=Take the A-Train
TTITLE9=The Girl from Ipanema
TTITLE10=S'Wonderful
EXTD=YEAR: 2010
EXTT0=
EXTT1=
EXTT2=
EXTT3=
EXTT4=
EXTT5=
EXTT6=
EXTT7=
EXTT8=
EXTT9=
EXTT10=
PLAYORDER=
